<?xml version="1.0" encoding="UTF-8"?>
<svg id="Layer_1" xmlns="http://www.w3.org/2000/svg" version="1.1" viewBox="0 0 1278.16 286.35">
  <!-- Generator: Adobe Illustrator 30.1.0, SVG Export Plug-In . SVG Version: 2.1.1 Build 136)  -->
  <defs>
    <style>
      .st0 {
        fill: #0014dc;
      }
    </style>
  </defs>
  <g id="Type">
    <g>
      <g>
        <path class="st0" d="M744.97,267.39h-74.71V12.93h-11.19c-1.74,18.41-3.67,30.54-5.78,36.38-2.12,5.85-6.59,9.51-13.43,11.01-6.84,1.49-20.71,2.24-41.6,2.24v11.19h57.09v193.65h-68.65v11.94h171.23c-4.5-3.75-8.82-7.73-12.95-11.94h0Z"/>
        <g>
          <path class="st0" d="M864.24,285.17c-78.3,0-142-63.7-142-142S785.94,1.17,864.24,1.17s142,63.7,142,142-63.7,142-142,142h0ZM864.24,14.17c-71.13,0-129,57.87-129,129s57.87,129,129,129,129-57.87,129-129S935.37,14.17,864.24,14.17h0Z"/>
          <path class="st0" d="M1135.24,285.17c-78.3,0-142-63.7-142-142S1056.94,1.17,1135.24,1.17s142,63.7,142,142-63.7,142-142,142ZM1135.24,14.17c-71.13,0-129,57.87-129,129s57.87,129,129,129,129-57.87,129-129-57.87-129-129-129Z"/>
        </g>
      </g>
      <g>
        <g>
          <path class="st0" d="M210.38,217.13C125.45,149.13,90.02,61.81.92,61.81v155.32h209.46Z"/>
          <path class="st0" d="M391,59.48c-17.34,0-32.85,7.54-41.84,18.62V12.99h-20.97v155.32h17.26l2.21-16.33c6.09,8.15,18.49,18.66,42.32,18.66,32.01,0,54.69-22.88,54.69-55.33s-21.76-55.84-53.68-55.84h.01ZM385.26,151.19c-23.09,0-36.88-13.75-36.88-36.09s14.13-36.09,36.88-36.09,36.88,13.75,36.88,36.09-14.13,36.09-36.88,36.09Z"/>
          <rect class="st0" x="291.7" y="12.99" width="20.97" height="155.32"/>
          <path class="st0" d="M232.43,152.54c-15.29,0-31.35-7.46-39.97-18.18l-14.14,13.46c13.79,15.63,31.83,22.83,53.21,22.83,29.34,0,47.75-13.07,47.75-35.11,0-45.81-79.58-17.16-79.58-42.98,0-9.45,11.02-14.8,28.18-14.8,15.29,0,26.33,4.96,33.2,12.04l14.14-13.46c-9.36-10.08-26.99-16.86-46.81-16.86-29.65,0-49.15,14.03-49.15,36.23,0,44.55,79.27,16.21,79.27,42.19,0,9.13-10.33,14.64-26.09,14.64h0Z"/>
          <path class="st0" d="M442.36,201.6h-226.65c46.79,38.18,118.62,77.66,226.65,77.66v-77.66Z"/>
        </g>
        <path class="st0" d="M436.86,52.13c4.37,0,8.04,3.44,8.04,7.96s-3.67,8.04-8.04,8.04-8.08-3.44-8.08-8.04,3.7-7.96,8.08-7.96ZM436.86,66.66c3.49,0,6.32-2.81,6.32-6.57s-2.83-6.49-6.32-6.49-6.36,2.83-6.36,6.49,2.83,6.57,6.36,6.57ZM438.39,60.47c.8-.19,1.45-.92,1.45-2.04,0-1.3-1.07-2.14-2.79-2.14h-2.92v7.5h1.66v-2.73h.8c.78.02,1.05.44,1.26,1.05.21.65.29,1.32.63,1.68h1.66v-.08c-.34-.55-.44-1.07-.67-1.74-.25-.73-.4-1.24-1.07-1.49h-.01ZM435.78,59.73v-2.06h1.15c.78,0,1.26.34,1.26.97s-.48,1.09-1.26,1.09h-1.15Z"/>
      </g>
    </g>
  </g>
</svg>